<?xml version="1.0" encoding="utf-8"?>
<!-- Generator: Adobe Illustrator 15.1.0, SVG Export Plug-In . SVG Version: 6.00 Build 0)  -->
<!DOCTYPE svg PUBLIC "-//W3C//DTD SVG 1.1//EN" "http://www.w3.org/Graphics/SVG/1.1/DTD/svg11.dtd">
<svg version="1.1" id="레이어_1" xmlns="http://www.w3.org/2000/svg" xmlns:xlink="http://www.w3.org/1999/xlink" x="0px"
	 y="0px" width="24px" height="24px" viewBox="0 0 24 24" enable-background="new 0 0 24 24" xml:space="preserve">
<rect x="6.25" y="-2.25" fill="#FFFFFF" width="14.688" height="27.25"/>
<g id="_x31__stroke">
	<g id="Facebook_1_">
		<rect fill="none" width="24" height="24"/>
		<path id="Facebook" fill="#4460A0" d="M12.818,24H1.325C0.593,24,0,23.406,0,22.676V1.325C0,0.593,0.593,0,1.325,0h21.351
			C23.407,0,24,0.593,24,1.325v21.351C24,23.407,23.407,24,22.676,24h-6.115v-9.295h3.119l0.467-3.622h-3.586V8.771
			c0-1.049,0.291-1.764,1.795-1.764h1.918v-3.24c-0.332-0.044-1.472-0.143-2.795-0.143c-2.767,0-4.658,1.688-4.658,4.788v2.67H9.691
			v3.622h3.127V24z"/>
	</g>
</g>
</svg>
