<?xml version="1.0" encoding="utf-8"?>
<!-- Generator: Adobe Illustrator 15.1.0, SVG Export Plug-In . SVG Version: 6.00 Build 0)  -->
<!DOCTYPE svg PUBLIC "-//W3C//DTD SVG 1.1//EN" "http://www.w3.org/Graphics/SVG/1.1/DTD/svg11.dtd">
<svg version="1.1" id="레이어_1" xmlns="http://www.w3.org/2000/svg" xmlns:xlink="http://www.w3.org/1999/xlink" x="0px"
	 y="0px" width="24px" height="24px" viewBox="0 0 24 24" enable-background="new 0 0 24 24" xml:space="preserve">
<g>
	<path fill="#099A49" d="M23.902,22.411c0,0.823-0.668,1.491-1.491,1.491H1.55c-0.822,0-1.49-0.668-1.49-1.491V1.55
		c0-0.822,0.668-1.49,1.49-1.49h20.861c0.823,0,1.491,0.668,1.491,1.49V22.411z"/>
</g>
<g id="Layer_6">
	<g>
		<path fill="#FFFFFF" d="M19.388,18.281H4.575c-0.883,0-1.602-0.786-1.602-1.752V7.434c0-0.966,0.718-1.752,1.602-1.752h14.813
			c0.883,0,1.602,0.786,1.602,1.752v9.096C20.989,17.495,20.271,18.281,19.388,18.281z M4.575,7.235
			c-0.183,0-0.296,0.128-0.296,0.198v9.096c0,0.069,0.113,0.196,0.296,0.196h14.813c0.183,0,0.295-0.127,0.295-0.196V7.434
			c0-0.07-0.112-0.197-0.295-0.197H4.575V7.235z"/>
	</g>
	<polygon fill="#FFFFFF" points="20.004,6.917 12.048,6.917 4.101,6.92 3.222,8.088 11.956,13.281 20.873,8.093 	"/>
</g>
</svg>
