<?xml version="1.0" encoding="utf-8"?>
<!-- Generator: Adobe Illustrator 15.1.0, SVG Export Plug-In . SVG Version: 6.00 Build 0)  -->
<!DOCTYPE svg PUBLIC "-//W3C//DTD SVG 1.1//EN" "http://www.w3.org/Graphics/SVG/1.1/DTD/svg11.dtd">
<svg version="1.1" id="레이어_1" xmlns="http://www.w3.org/2000/svg" xmlns:xlink="http://www.w3.org/1999/xlink" x="0px"
	 y="0px" width="440px" height="230px" viewBox="0 0 440 230" enable-background="new 0 0 440 230" xml:space="preserve">
<rect x="334.199" y="56.311" fill="#221E1F" width="74.009" height="13.729"/>
<rect x="35.237" y="57.006" fill="#F05A28" width="281.941" height="12.341"/>
<text transform="matrix(1.4023 0 0 1 58.5811 46.6768)" fill="#221E1F" font-family="'TTAppgulimB'" font-size="30">O      P      E      N</text>
<rect x="35.236" y="196.133" fill="#221E1F" width="74.007" height="13.729"/>
<rect x="126.266" y="196.828" fill="#F05A28" width="281.942" height="12.341"/>
<path fill-rule="evenodd" clip-rule="evenodd" fill="#FFFFFF" d="M266.148,133.774c0.369-0.177,0.735-0.351,1.104-0.528
	c0.933,1.302,1.833,2.631,2.807,3.901c7.196,9.35,14.289,18.782,21.683,27.979c2.675,3.329,5.574,7.265,10.984,5.431
	c5.729-1.946,10.578-4.866,11.042-11.687c1.156-17.061,2.306-34.121,3.394-51.185c0.226-3.611-1.689-5.268-5.339-4.948
	c-2.027,0.179-4.056,0.332-6.077,0.562c-3.3,0.378-4.671,2.038-4.225,5.467c0.463,3.484,0.617,7.038,0.565,10.555
	c-0.14,9.805-0.454,19.604-0.701,29.407c-0.506,0.106-1.012,0.216-1.518,0.322c-1.223-1.523-2.593-2.955-3.64-4.588
	c-7.797-12.202-15.598-24.401-23.227-36.703c-1.734-2.794-3.356-5.17-7.11-4.112c-4.479,1.263-10.687,1.521-11.241,7.06
	c-1.854,18.517-2.883,37.114-4.021,55.692c-0.071,1.195,1.35,3.282,2.475,3.607c5.08,1.465,11.611-3.803,11.833-9.14
	C265.316,151.835,265.741,142.806,266.148,133.774 M363.351,102.666c-7.855,0.013-15.071,3.396-21.265,10.379
	c-12.038,13.57-18.167,29.753-20.923,47.319c-0.812,5.147,2.165,8.771,7.927,10.674c3.246,1.071,5.195,0.421,5.835-3.218
	c0.693-3.965,1.449-7.955,2.698-11.767c0.521-1.606,2.185-3.702,3.669-4.013c10.804-2.266,21.699-4.111,32.557-6.142
	c3.126-0.582,4.128,0.789,4.552,3.709c1.058,7.307,2.616,14.543,3.662,21.851c0.586,4.066,2.508,5.046,6.3,4.014
	c8.854-2.396,10.704-4.544,9.422-13.359c-2.318-15.973-5.328-31.838-13.152-46.268C380.158,107.596,373.247,102.637,363.351,102.666
	 M90.225,147.122c0.721,1.439,1.035,1.857,1.146,2.322c1.398,5.875,2.897,11.73,4.102,17.646c0.765,3.765,2.667,4.563,6.191,3.438
	c9.256-2.953,11.052-5.806,9.179-15.161c-0.297-1.48-0.569-2.968-0.92-4.438c-3.372-14.107-7.358-28.013-16.824-39.54
	c-8.924-10.865-20.044-12.055-31.307-3.579c-2.281,1.716-4.407,3.729-6.241,5.9c-12.271,14.551-19.139,31.537-22.662,49.953
	c-1.193,6.224,1.082,9.808,7.114,12.093c3.624,1.371,5.739,0.695,6.433-3.543c0.783-4.783,1.951-9.535,3.358-14.181
	c0.446-1.466,2.018-3.387,3.386-3.675C65.45,151.772,77.788,149.505,90.225,147.122 M157.768,141.626
	c4.937-2.99,8.251-4.67,11.194-6.846c6.222-4.605,9.218-10.839,7.665-18.498c-1.583-7.808-7.556-11.375-14.849-12.657
	c-13.161-2.319-26.157-0.853-38.68,3.478c-2.278,0.786-5.083,4.245-5.124,6.517c-0.312,17.46-0.064,34.931,0.229,52.396
	c0.024,1.515,1.259,3.766,2.559,4.375c5.316,2.498,14.886-4.244,14.712-10.002c-0.389-12.918-0.801-25.839-0.917-38.762
	c-0.017-1.767,1.267-4.752,2.535-5.103c4.519-1.247,9.336-2.373,13.956-2.111c7.677,0.435,10.837,7.551,6.465,13.869
	c-1.475,2.133-3.668,4.147-6.003,5.254c-3.942,1.866-8.2,3.182-12.437,4.325c-3.639,0.98-4.262,2.569-1.723,5.186
	c3.879,4.002,7.6,8.233,11.928,11.717c6.298,5.064,12.852,9.901,19.726,14.164c4.935,3.06,10.167,1.912,14.681-1.777
	c4.604-3.767,4.289-5.252-0.649-8.424C174.842,153.461,166.891,147.83,157.768,141.626 M239.691,128.509
	c-13.073,0.998-26.147,1.997-39.418,3.011c1.24-7.6,7.211-13.367,16.222-14.588c6.799-0.918,13.827-0.452,20.737-0.2
	c5.951,0.219,5.562-4.418,6.577-7.822c0.934-3.146-1.118-4.659-4.053-5.092c-13.166-1.943-26.129-1.618-38.473,3.965
	c-21.063,9.524-25.423,37.368-8.07,51.763c11.319,9.387,24.735,11.369,38.869,9.62c6.266-0.776,10.968-6.869,10.991-13.057
	c-7.701,0-15.464,0.614-23.083-0.168c-7.996-0.822-14.948-4.209-18.898-12.639c10.151-0.898,19.295-1.579,28.405-2.558
	C236.019,140.042,239.729,135.468,239.691,128.509 M307.559,182.958c-0.027-0.688-0.051-1.375-0.082-2.062
	c-1.61-0.999-3.587-3.107-4.76-2.737c-1.81,0.571-3.602,2.637-4.316,4.477 M67.373,181.452c-0.018-0.701-0.031-1.404-0.048-2.105
	c-1.588-1.04-3.493-3.19-4.688-2.856c-1.807,0.501-3.588,2.531-4.396,4.34c-0.303,0.676,2.292,3.742,3.328,3.629
	C63.592,184.235,65.448,182.539,67.373,181.452"/>
<path fill-rule="evenodd" clip-rule="evenodd" fill="#221E1F" d="M266.148,133.774c-0.407,9.032-0.831,18.062-1.211,27.092
	c-0.223,5.337-6.754,10.604-11.833,9.14c-1.125-0.325-2.547-2.412-2.476-3.607c1.139-18.578,2.168-37.176,4.021-55.692
	c0.555-5.538,6.762-5.797,11.241-7.06c3.755-1.058,5.376,1.318,7.11,4.112c7.629,12.302,15.43,24.501,23.228,36.704
	c1.046,1.632,2.417,3.063,3.639,4.587c0.506-0.106,1.011-0.216,1.518-0.322c0.247-9.804,0.562-19.603,0.7-29.407
	c0.053-3.517-0.102-7.07-0.563-10.555c-0.447-3.428,0.924-5.089,4.224-5.467c2.021-0.229,4.049-0.383,6.077-0.562
	c3.649-0.319,5.564,1.337,5.339,4.948c-1.088,17.063-2.237,34.124-3.393,51.185c-0.465,6.82-5.314,9.74-11.043,11.688
	c-5.41,1.834-8.31-2.103-10.984-5.431c-7.394-9.197-14.486-18.63-21.682-27.979c-0.975-1.271-1.874-2.6-2.809-3.901
	C266.884,133.424,266.518,133.599,266.148,133.774"/>
<path fill-rule="evenodd" clip-rule="evenodd" fill="#221E1F" d="M363.351,102.666c9.896-0.029,16.808,4.93,21.281,13.18
	c7.824,14.43,10.834,30.296,13.152,46.268c1.282,8.815-0.567,10.965-9.422,13.36c-3.792,1.031-5.714,0.052-6.3-4.015
	c-1.046-7.308-2.604-14.544-3.662-21.851c-0.424-2.92-1.426-4.291-4.552-3.709c-10.857,2.03-21.753,3.876-32.557,6.142
	c-1.484,0.311-3.146,2.406-3.669,4.013c-1.249,3.812-2.005,7.802-2.698,11.767c-0.64,3.639-2.589,4.289-5.835,3.218
	c-5.762-1.903-8.737-5.526-7.927-10.674c2.756-17.566,8.885-33.749,20.923-47.319C348.279,106.062,355.495,102.679,363.351,102.666
	 M374.875,133.391c-2.466-4.809-4.008-8.714-6.316-12.107c-3.382-4.967-7.955-5.546-12.708-1.873
	c-6.228,4.806-9.438,11.557-12.729,19.884"/>
<path fill-rule="evenodd" clip-rule="evenodd" fill="#221E1F" d="M90.225,147.122c-12.438,2.383-24.774,4.65-37.045,7.235
	c-1.367,0.288-2.939,2.209-3.386,3.676c-1.407,4.645-2.575,9.396-3.358,14.18c-0.693,4.238-2.809,4.914-6.433,3.543
	c-6.032-2.285-8.308-5.869-7.114-12.093c3.523-18.416,10.391-35.402,22.662-49.953c1.834-2.171,3.96-4.185,6.241-5.9
	c11.263-8.476,22.383-7.286,31.307,3.579c9.466,11.527,13.452,25.433,16.824,39.54c0.351,1.471,0.623,2.958,0.92,4.438
	c1.873,9.355,0.077,12.208-9.179,15.161c-3.524,1.125-5.427,0.326-6.191-3.438c-1.203-5.915-2.702-11.771-4.102-17.646
	C91.26,148.979,90.945,148.562,90.225,147.122 M55.059,141.554c11.574-2.16,21.734-4.057,33.064-6.169
	c-3.104-5.809-5.162-10.606-8.068-14.838c-3.147-4.579-7.122-4.999-11.346-1.485C62.015,124.627,58.806,132.322,55.059,141.554"/>
<path fill-rule="evenodd" clip-rule="evenodd" fill="#221E1F" d="M157.768,141.626c9.123,6.204,17.074,11.835,25.269,17.101
	c4.938,3.172,5.253,4.657,0.649,8.424c-4.514,3.689-9.746,4.837-14.681,1.777c-6.874-4.263-13.428-9.1-19.726-14.164
	c-4.328-3.483-8.048-7.715-11.928-11.717c-2.538-2.616-1.916-4.205,1.723-5.186c4.237-1.144,8.494-2.459,12.437-4.325
	c2.335-1.106,4.528-3.121,6.003-5.254c4.372-6.318,1.212-13.435-6.465-13.869c-4.62-0.262-9.438,0.864-13.956,2.111
	c-1.269,0.351-2.552,3.336-2.535,5.103c0.116,12.923,0.528,25.844,0.917,38.762c0.174,5.759-9.396,12.501-14.712,10.002
	c-1.3-0.609-2.533-2.86-2.559-4.375c-0.294-17.466-0.54-34.937-0.229-52.396c0.041-2.271,2.846-5.729,5.124-6.516
	c12.522-4.331,25.519-5.797,38.68-3.479c7.293,1.282,13.265,4.85,14.849,12.657c1.553,7.659-1.443,13.893-7.665,18.498
	C166.019,136.956,162.704,138.636,157.768,141.626"/>
<path fill-rule="evenodd" clip-rule="evenodd" fill="#221E1F" d="M239.692,128.509c0.037,6.959-3.673,11.533-10.194,12.235
	c-9.11,0.979-18.254,1.66-28.406,2.558c3.951,8.43,10.903,11.816,18.899,12.639c7.619,0.783,15.382,0.168,23.083,0.168
	c-0.023,6.188-4.726,12.28-10.991,13.057c-14.134,1.749-27.55-0.232-38.87-9.62c-17.352-14.395-12.991-42.237,8.071-51.763
	c12.344-5.583,25.306-5.908,38.472-3.965c2.936,0.433,4.987,1.947,4.054,5.092c-1.016,3.404-0.626,8.041-6.576,7.822
	c-6.911-0.252-13.939-0.717-20.738,0.201c-9.011,1.22-14.981,6.987-16.222,14.587C213.544,130.506,226.618,129.507,239.692,128.509"
	/>
<path fill-rule="evenodd" clip-rule="evenodd" fill="#221E1F" d="M107.731,182.444c-0.835-0.183-1.668-0.367-2.503-0.552
	 M87.768,179.194c-0.642-0.251-1.282-0.498-1.922-0.75"/>
<path fill-rule="evenodd" clip-rule="evenodd" fill="#FFFFFF" d="M105.229,181.893c0.835,0.186,1.668,0.369,2.503,0.552"/>
</svg>
